<?xml version="1.0" encoding="UTF-8" standalone="no"?>
<svg
   data-name="Layer 1"
   viewBox="0 0 68.415001 87.286003"
   x="0px"
   y="0px"
   version="1.1"
   id="svg12"
   sodipodi:docname="noun-globe-6593229.svg"
   width="68.415001"
   height="87.286003"
   inkscape:version="1.1.2 (0a00cf5339, 2022-02-04)"
   xmlns:inkscape="http://www.inkscape.org/namespaces/inkscape"
   xmlns:sodipodi="http://sodipodi.sourceforge.net/DTD/sodipodi-0.dtd"
   xmlns="http://www.w3.org/2000/svg"
   xmlns:svg="http://www.w3.org/2000/svg">
  <sodipodi:namedview
     id="namedview14"
     pagecolor="#ffffff"
     bordercolor="#666666"
     borderopacity="1.0"
     inkscape:pageshadow="2"
     inkscape:pageopacity="0.0"
     inkscape:pagecheckerboard="0"
     showgrid="false"
     fit-margin-top="0"
     fit-margin-left="0"
     fit-margin-right="0"
     fit-margin-bottom="0"
     inkscape:zoom="5.816"
     inkscape:cx="34.129986"
     inkscape:cy="56.224209"
     inkscape:window-width="1920"
     inkscape:window-height="1052"
     inkscape:window-x="0"
     inkscape:window-y="0"
     inkscape:window-maximized="1"
     inkscape:current-layer="svg12" />
  <defs
     id="defs4">
    <style
       id="style2">
      .cls-1 {
        fill-rule: evenodd;
        stroke-width: 0px;
      }
    </style>
  </defs>
  <path
     class="cls-1"
     d="m 6.565,10.88 c 0.134,0.983 0.256,1.637 0.476,2.168 0.252,0.608 0.685,1.169 1.486,2.043 0.619,0.676 1.154,1.325 1.565,2.064 0.447,0.803 0.734,1.675 0.806,2.725 0.011,0.164 0.013,0.39 0.016,0.616 0.004,0.38 0.007,0.761 0.161,1.003 0.146,0.23 0.433,0.496 0.784,0.77 0.404,0.316 0.894,0.634 1.372,0.925 0.228,0.139 0.447,0.269 0.651,0.38 -0.254,-0.428 -0.728,-1.062 -0.948,-1.736 -0.241,-0.739 -0.452,-1.385 -0.514,-1.856 -0.117,-0.887 0.119,-1.469 0.667,-1.909 0.427,-0.343 0.88,-0.439 1.438,-0.487 0.735,-0.063 1.612,-0.066 2.45,0.13 0.91,0.212 1.752,0.646 2.341,1.445 0.09,-0.171 0.18,-0.383 0.272,-0.6 0.259,-0.609 0.532,-1.249 1.063,-1.867 0.737,-0.857 1.767,-1.405 2.677,-1.89 0.087,-0.046 -0.185,0.099 0.297,-0.162 0.295,-0.159 0.374,-0.203 0.45,-0.245 0.026,-0.014 0.052,-0.028 0.078,-0.04 0.711,-0.394 1.322,-0.725 2.052,-0.911 0.393,-0.101 0.773,-0.147 1.131,-0.191 v 0 c 0.297,-0.037 0.57,-0.07 0.61,-0.091 0.053,-0.028 -0.008,-0.028 0.035,-0.08 0.312,-0.382 0.606,-0.741 1.342,-0.904 0.551,-0.122 1.059,-0.025 1.607,0.081 0.254,0.049 0.522,0.1 0.701,0.11 -0.036,-0.535 -0.324,-1.348 -0.562,-2.019 L 31.01,10.186 C 30.814,9.631 30.612,9.079 30.395,8.611 30.212,8.215 30.024,7.884 29.833,7.683 29.715,7.558 29.594,7.483 29.479,7.445 29.352,7.403 29.22,7.4 29.106,7.423 28.944,7.455 28.656,7.646 28.342,7.854 27.437,8.453 26.409,9.135 24.744,9.016 24.103,8.97 23.223,8.741 22.446,8.352 21.889,8.073 21.364,7.705 20.971,7.249 20.478,6.676 20.189,5.985 20.246,5.177 20.272,4.814 20.374,4.438 20.567,4.051 20.808,3.569 21.176,3.111 21.646,2.733 22.066,2.396 22.573,2.113 23.148,1.925 23.702,1.744 24.275,1.666 24.836,1.589 25.233,1.535 25.623,1.481 25.886,1.401 26.095,1.337 26.272,1.238 26.44,1.103 26.647,0.937 26.857,0.701 27.092,0.406 27.184,0.29 27.279,0.167 27.376,0.037 20.07,0.546 13.498,3.718 8.625,8.591 7.899,9.317 7.211,10.081 6.564,10.879 v 0 z m 12.558,15.746 c 0.459,-0.229 0.927,-0.396 1.323,-0.501 1.88,-0.498 2.412,0.084 3.156,0.895 0.137,0.15 0.294,0.321 0.494,0.444 0.102,0.063 0.292,0.153 0.495,0.249 0.612,0.29 1.321,0.626 2.008,1.313 0.436,0.436 0.795,0.952 1.164,1.481 0.341,0.49 0.692,0.994 1.037,1.311 0.357,0.329 0.845,0.581 1.324,0.828 0.467,0.241 0.927,0.479 1.392,0.823 0.581,0.43 1.086,0.983 1.436,1.561 0.394,0.65 0.609,1.357 0.563,2.025 -0.061,0.9 -0.477,1.449 -0.97,2.099 -0.181,0.239 -0.378,0.5 -0.541,0.785 -0.179,0.314 -0.34,0.682 -0.5,1.049 -0.361,0.829 -0.72,1.651 -1.33,2.245 -0.719,0.701 -1.448,0.845 -2.226,1 -0.269,0.053 -0.549,0.109 -0.761,0.189 -0.292,0.11 -0.595,0.301 -0.875,0.538 -0.305,0.257 -0.569,0.557 -0.757,0.858 -0.178,0.284 -0.307,0.598 -0.427,0.889 -0.231,0.56 -0.44,1.067 -0.878,1.536 -0.563,0.603 -1.177,0.834 -1.857,1.089 -0.569,0.214 -1.219,0.458 -1.693,1.109 -0.425,0.585 -1.044,1.248 -1.956,1.497 -0.985,0.269 -2.103,0.046 -3.268,-1.248 -1.327,-1.475 -0.943,-2.836 -0.538,-4.269 0.037,-0.13 0.074,-0.261 0.135,-0.5 0.145,-0.572 0.357,-1.25 0.575,-1.953 0.427,-1.369 0.887,-2.848 0.905,-3.783 0.021,-1.074 -0.317,-1.86 -0.676,-2.697 -0.179,-0.416 -0.362,-0.843 -0.547,-1.399 -0.169,-0.506 -0.322,-1.076 -0.427,-1.607 -0.101,-0.51 -0.169,-1.034 -0.18,-1.499 -0.036,-1.597 0.561,-2.244 1.307,-3.052 0.206,-0.223 0.43,-0.466 0.604,-0.714 0.066,-0.094 0.167,-0.26 0.27,-0.429 0.29,-0.474 0.588,-0.963 1.096,-1.419 0.327,-0.294 0.719,-0.543 1.125,-0.745 v 0 z m 2.038,2.217 c -0.248,0.065 -0.528,0.163 -0.784,0.291 -0.183,0.091 -0.357,0.201 -0.497,0.327 -0.21,0.189 -0.397,0.495 -0.578,0.792 -0.107,0.175 -0.212,0.347 -0.369,0.572 -0.309,0.442 -0.583,0.738 -0.835,1.011 -0.322,0.349 -0.58,0.628 -0.569,1.093 0.006,0.26 0.057,0.62 0.136,1.015 0.091,0.459 0.208,0.906 0.328,1.266 0.125,0.374 0.3,0.781 0.47,1.178 0.479,1.115 0.929,2.163 0.896,3.841 -0.026,1.365 -0.545,3.031 -1.026,4.575 -0.198,0.635 -0.388,1.247 -0.531,1.81 -0.03,0.119 -0.094,0.344 -0.156,0.567 -0.189,0.67 -0.368,1.306 -0.078,1.629 0.295,0.328 0.413,0.43 0.44,0.423 0.1,-0.027 0.271,-0.242 0.416,-0.441 0.969,-1.333 2.041,-1.736 2.98,-2.088 0.357,-0.134 0.679,-0.255 0.79,-0.374 0.097,-0.104 0.212,-0.382 0.338,-0.688 0.169,-0.409 0.351,-0.851 0.636,-1.307 0.341,-0.545 0.805,-1.075 1.329,-1.518 0.513,-0.433 1.098,-0.795 1.7,-1.022 0.45,-0.17 0.838,-0.247 1.212,-0.321 0.356,-0.071 0.69,-0.137 0.807,-0.251 0.215,-0.209 0.464,-0.78 0.714,-1.354 0.2,-0.46 0.402,-0.921 0.632,-1.324 0.245,-0.429 0.503,-0.77 0.739,-1.082 0.219,-0.29 0.404,-0.534 0.408,-0.592 0.005,-0.078 -0.054,-0.217 -0.156,-0.385 -0.164,-0.27 -0.413,-0.538 -0.71,-0.758 -0.272,-0.201 -0.637,-0.389 -1.007,-0.581 -0.647,-0.334 -1.308,-0.675 -1.94,-1.257 -0.582,-0.536 -1.019,-1.163 -1.444,-1.773 -0.292,-0.419 -0.577,-0.829 -0.845,-1.096 -0.354,-0.354 -0.816,-0.573 -1.215,-0.762 -0.261,-0.124 -0.503,-0.238 -0.77,-0.403 -0.524,-0.323 -0.824,-0.652 -1.088,-0.939 -0.072,-0.079 -0.124,-0.135 -0.372,-0.07 v 0 z m 29.444,-8.708 c -0.011,-0.005 -0.017,-0.007 0,0 z m 2.635,7.534 v 0.014 c 0.004,0.007 0.009,0.014 0.016,0.02 L 53.24,27.668 v 0 z m 0,-0.038 c 0.1,0.089 0.236,0.181 0.05,0.096 -0.014,-0.006 -0.026,-0.014 -0.035,-0.023 l -0.016,-0.035 v -0.038 0 z m 3.61,-9.038 c 1.325,3.351 2.053,7.002 2.053,10.824 0,8.133 -3.296,15.496 -8.626,20.825 -0.155,0.155 -0.313,0.309 -0.472,0.461 -0.422,-0.911 -0.785,-1.782 -0.994,-2.545 -0.152,-0.556 -0.231,-1.073 -0.247,-1.527 -0.015,-0.418 0.024,-0.76 0.106,-1.001 0.085,-0.249 0.321,-0.435 0.53,-0.599 0.071,-0.056 0.14,-0.11 0.209,-0.167 0.344,-0.284 0.639,-0.584 0.889,-1.157 0.194,-0.445 0.329,-1.028 0.394,-1.899 0.064,-0.87 0.068,-2.112 -0.07,-3.238 -0.116,-0.944 -0.341,-1.851 -0.727,-2.508 -0.885,-1.507 -2.073,-1.546 -3.463,-1.592 -0.255,-0.008 -0.522,-0.017 -0.798,-0.046 -0.554,-0.057 -1.147,-0.205 -1.697,-0.422 -0.497,-0.197 -0.93,-0.436 -1.228,-0.699 -0.265,-0.234 -0.445,-0.514 -0.577,-0.815 -0.154,-0.35 -0.254,-0.757 -0.341,-1.159 -0.169,-0.773 -0.274,-1.361 -0.194,-1.693 0.04,-0.167 0.222,-0.325 0.635,-0.503 0.094,-0.041 0.316,-0.122 0.536,-0.203 0.564,-0.207 1.116,-0.409 1.624,-0.824 0.375,-0.305 0.583,-0.597 0.801,-0.901 0.277,-0.387 0.586,-0.819 2.166,-1.041 0.928,-0.13 1.533,-0.103 1.926,0.116 0.389,0.217 0.716,0.705 1.077,1.493 0.025,0.055 0.084,0.192 0.185,0.424 0.01,0.024 0.022,0.047 0.033,0.07 0.39,0.886 0.74,1.642 1.545,2.012 0.873,0.4 1.509,0.109 2.212,-0.212 0.119,-0.054 0.243,-0.111 0.399,-0.165 0.138,-0.048 0.284,-0.081 0.426,-0.114 0.628,-0.145 1.229,-0.283 1.805,-0.883 0.419,-0.437 0.706,-1.06 0.796,-1.749 0.075,-0.575 0.017,-1.216 -0.217,-1.838 -0.489,-1.303 -1.661,-2.36 -2.993,-3.206 -1.179,-0.749 -2.506,-1.349 -3.51,-1.787 l -0.437,-0.192 v 0 c 0.022,0.009 0.067,0.028 0,0 -0.755,-0.326 -1.443,-0.623 -1.818,-0.875 0.289,-0.179 0.77,-0.381 1.258,-0.586 0.168,-0.07 0.337,-0.141 0.605,-0.26 0.139,-0.061 0.341,-0.155 0.539,-0.247 0.54,-0.251 1.03,-0.478 1.294,-0.478 0.159,0 0.425,0.109 0.719,0.23 0.333,0.137 0.687,0.282 1.129,0.398 0.539,0.141 1.125,0.212 1.733,0.249 0.246,0.015 0.51,0.023 0.785,0.029 z m -9.254,34.024 c -5.001,3.917 -11.3,6.252 -18.145,6.252 -8.133,0 -15.496,-3.297 -20.825,-8.626 C 3.296,44.913 0,37.55 0,29.418 0,23.749 1.602,18.454 4.378,13.961 c 0.021,0.056 0.043,0.111 0.066,0.167 0.394,0.951 0.974,1.723 2.014,2.857 0.484,0.528 0.894,1.021 1.18,1.536 0.251,0.451 0.413,0.946 0.454,1.548 0.013,0.191 0.014,0.321 0.016,0.451 0.008,0.783 0.015,1.567 0.602,2.488 0.337,0.53 0.845,1.023 1.422,1.474 0.524,0.409 1.095,0.782 1.636,1.112 0.565,0.345 1.118,0.656 1.614,0.855 0.851,0.342 1.628,0.382 2.274,-0.087 1.385,-1.007 0.581,-3.467 -0.048,-5.392 -0.07,-0.215 -0.138,-0.421 -0.196,-0.606 0.317,0 0.637,0.026 0.925,0.093 0.33,0.077 0.612,0.208 0.747,0.427 0.056,0.091 0.097,0.182 0.135,0.267 0.315,0.705 0.577,1.293 1.64,1.395 0.54,0.051 1.171,-0.167 1.723,-0.594 0.378,-0.293 0.76,-0.703 1.059,-1.194 0.221,-0.363 0.375,-0.723 0.533,-1.095 0.176,-0.414 0.362,-0.849 0.612,-1.14 0.395,-0.459 1.174,-0.874 1.863,-1.24 0.292,-0.155 0.022,-0.007 0.308,-0.162 l 0.483,-0.267 c 0.024,-0.013 0.048,-0.028 0.071,-0.042 0.516,-0.286 0.959,-0.524 1.388,-0.634 0.233,-0.059 0.511,-0.093 0.773,-0.125 h 0.005 c 0,0 0,0 0,0 0.551,-0.067 1.058,-0.129 1.556,-0.387 0.427,-0.222 0.656,-0.469 0.855,-0.709 0.081,0.02 0.189,0.046 0.313,0.07 0.364,0.07 0.749,0.144 1.193,0.155 2.102,0.051 2.807,-1.06 2.845,-2.605 C 34.465,11.522 34.054,10.362 33.72,9.42 L 33.661,9.254 C 33.443,8.635 33.213,8.013 32.947,7.437 32.647,6.789 32.299,6.204 31.868,5.75 31.415,5.272 30.891,4.963 30.359,4.785 29.726,4.574 29.094,4.556 28.555,4.664 27.863,4.802 27.35,5.142 26.79,5.513 26.26,5.864 25.656,6.264 24.941,6.213 24.605,6.189 24.131,6.063 23.699,5.846 23.453,5.723 23.237,5.579 23.104,5.425 23.072,5.388 23.05,5.388 23.05,5.378 c 10e-4,-0.016 0.009,-0.039 0.024,-0.07 0.062,-0.125 0.175,-0.257 0.331,-0.382 0.164,-0.132 0.37,-0.245 0.611,-0.324 0.331,-0.108 0.767,-0.168 1.193,-0.226 0.502,-0.069 0.996,-0.136 1.49,-0.287 0.585,-0.178 1.064,-0.441 1.5,-0.793 0.398,-0.32 0.74,-0.695 1.092,-1.137 0.488,-0.612 1.008,-1.37 1.534,-2.159 7.585,0.349 14.422,3.567 19.449,8.594 2.081,2.081 3.853,4.473 5.239,7.099 -0.173,-0.024 -0.334,-0.055 -0.479,-0.093 -0.255,-0.067 -0.519,-0.175 -0.766,-0.277 -0.576,-0.236 -1.097,-0.45 -1.787,-0.45 -0.873,0 -1.633,0.353 -2.472,0.742 -0.139,0.064 -0.281,0.131 -0.495,0.225 -0.114,0.051 -0.338,0.145 -0.561,0.238 -0.786,0.33 -1.561,0.655 -2.166,1.181 -0.037,0.029 -0.073,0.06 -0.108,0.093 l -0.035,0.033 c -0.51,0.494 -0.799,1.096 -0.836,1.744 -0.036,0.624 0.167,1.239 0.635,1.784 0.03,0.038 0.062,0.076 0.096,0.112 l 0.032,0.033 c 0.67,0.691 1.73,1.149 2.92,1.663 0.446,0.193 -0.056,-0.029 0.426,0.181 0.899,0.392 2.085,0.928 3.125,1.589 0.887,0.563 1.638,1.189 1.87,1.809 0.065,0.174 0.082,0.346 0.063,0.496 -0.012,0.094 -0.025,0.153 -0.037,0.164 -0.004,0.004 -0.197,0.042 -0.407,0.091 -0.235,0.054 -0.475,0.11 -0.712,0.191 -0.186,0.064 -0.39,0.155 -0.589,0.246 -0.015,-0.142 -0.051,-0.284 -0.112,-0.422 -0.024,-0.055 -0.046,-0.104 -0.207,-0.457 -0.614,-1.339 -1.283,-2.233 -2.265,-2.78 -0.979,-0.545 -2.123,-0.664 -3.675,-0.446 -2.777,0.39 -3.459,1.342 -4.069,2.196 -0.105,0.147 -0.206,0.287 -0.284,0.351 -0.135,0.11 -0.474,0.235 -0.821,0.362 -0.188,0.069 -0.378,0.139 -0.679,0.269 -1.341,0.58 -1.997,1.36 -2.252,2.417 -0.216,0.892 -0.075,1.815 0.172,2.948 0.119,0.548 0.262,1.116 0.517,1.698 0.278,0.632 0.676,1.24 1.292,1.783 0.564,0.498 1.283,0.911 2.053,1.216 0.771,0.305 1.625,0.514 2.446,0.598 0.34,0.035 0.675,0.046 0.996,0.056 0.555,0.018 1.03,0.034 1.131,0.205 0.163,0.278 0.277,0.814 0.353,1.43 0.115,0.941 0.113,1.975 0.059,2.699 -0.039,0.527 -0.093,0.816 -0.163,0.975 -0.013,0.031 -0.055,0.068 -0.108,0.112 -0.048,0.039 -0.1,0.081 -0.154,0.123 -0.515,0.404 -1.098,0.862 -1.455,1.908 -0.186,0.545 -0.276,1.231 -0.249,2.002 0.023,0.655 0.134,1.39 0.346,2.165 0.332,1.211 0.888,2.462 1.492,3.722 v 0 z m 2.548,29.33 H 9.364 c -0.733,0 -1.4,0.301 -1.884,0.785 -0.484,0.484 -0.785,1.152 -0.785,1.884 v 2.67 h 46.119 v -2.67 c 0,-0.733 -0.301,-1.4 -0.785,-1.884 -0.484,-0.484 -1.152,-0.785 -1.884,-0.785 v 0 z M 24.874,67.841 C 21.832,67.488 18.894,66.785 16.1,65.772 11.79,64.209 7.836,61.911 4.391,59.03 3.795,58.532 3.717,57.645 4.215,57.049 4.713,56.453 5.6,56.375 6.196,56.873 c 3.201,2.677 6.869,4.81 10.862,6.258 3.844,1.394 8,2.154 12.343,2.154 9.996,0 19.045,-4.052 25.595,-10.602 6.55,-6.55 10.602,-15.6 10.602,-25.595 0,-4.342 -0.76,-8.498 -2.154,-12.343 C 61.996,12.752 59.863,9.084 57.186,5.883 56.688,5.288 56.767,4.401 57.362,3.902 c 0.595,-0.498 1.482,-0.419 1.981,0.176 2.881,3.446 5.179,7.4 6.742,11.709 1.508,4.158 2.33,8.638 2.33,13.3 0,10.773 -4.367,20.527 -11.427,27.587 -5.897,5.897 -13.674,9.914 -22.354,11.078 -0.003,0.11 0.007,0.222 0.031,0.334 l 2.308,10.558 H 22.535 l 2.308,-10.558 c 0.018,-0.083 0.028,-0.165 0.031,-0.247 z"
     id="path6" />
</svg>
